<?xml version="1.0" encoding="UTF-8" standalone="no"?>
<!-- Created with Inkscape (http://www.inkscape.org/) -->

<svg
   xmlns:osb="http://www.openswatchbook.org/uri/2009/osb"
   xmlns:dc="http://purl.org/dc/elements/1.1/"
   xmlns:cc="http://creativecommons.org/ns#"
   xmlns:rdf="http://www.w3.org/1999/02/22-rdf-syntax-ns#"
   xmlns:svg="http://www.w3.org/2000/svg"
   xmlns="http://www.w3.org/2000/svg"
   xmlns:sodipodi="http://sodipodi.sourceforge.net/DTD/sodipodi-0.dtd"
   xmlns:inkscape="http://www.inkscape.org/namespaces/inkscape"
   width="800px"
   height="600px"
   viewBox="0 0 800 600"
   version="1.1"
   id="SVGRoot"
   inkscape:version="0.92.3 (2405546, 2018-03-11)"
   sodipodi:docname="DebDrawing.svg">
  <sodipodi:namedview
     id="base"
     pagecolor="#ffffff"
     bordercolor="#666666"
     borderopacity="1.0"
     inkscape:pageopacity="0.0"
     inkscape:pageshadow="2"
     inkscape:zoom="0.64"
     inkscape:cx="400"
     inkscape:cy="300"
     inkscape:document-units="px"
     inkscape:current-layer="layer1"
     showgrid="false"
     inkscape:window-width="1920"
     inkscape:window-height="1027"
     inkscape:window-x="-8"
     inkscape:window-y="-8"
     inkscape:window-maximized="1" />
  <defs
     id="defs1414">
    <pattern
       inkscape:stockid="Wavy"
       id="Wavy"
       height="5.1805778"
       width="30.066020"
       patternUnits="userSpaceOnUse"
       inkscape:collect="always">
      <path
         id="path14703"
         d="M 7.597,0.061 C 5.079,-0.187 2.656,0.302 -0.01,1.788 L -0.01,3.061 C 2.773,1.431 5.173,1.052 7.472,1.280 C 9.770,1.508 11.969,2.361 14.253,3.218 C 18.820,4.931 23.804,6.676 30.066,3.061 L 30.062,1.788 C 23.622,5.497 19.246,3.770 14.691,2.061 C 12.413,1.207 10.115,0.311 7.597,0.061 z "
         style="fill:black;stroke:none;" />
    </pattern>
    <linearGradient
       id="linearGradient14795"
       osb:paint="solid">
      <stop
         style="stop-color:#ca2a2a;stop-opacity:1;"
         offset="0"
         id="stop14793" />
    </linearGradient>
  </defs>
  <metadata
     id="metadata1417">
    <rdf:RDF>
      <cc:Work
         rdf:about="">
        <dc:format>image/svg+xml</dc:format>
        <dc:type
           rdf:resource="http://purl.org/dc/dcmitype/StillImage" />
        <dc:title></dc:title>
      </cc:Work>
    </rdf:RDF>
  </metadata>
  <g
     id="layer1"
     inkscape:groupmode="layer"
     inkscape:label="Layer 1">
    <path
       sodipodi:type="star"
       style="fill:#132a2a;fill-opacity:1;stroke-width:1.00157475;stroke-miterlimit:4;stroke-dasharray:none"
       id="path1973"
       sodipodi:sides="5"
       sodipodi:cx="59.375"
       sodipodi:cy="110.9375"
       sodipodi:r1="49.410587"
       sodipodi:r2="24.705294"
       sodipodi:arg1="0.60554466"
       sodipodi:arg2="1.2338632"
       inkscape:flatsided="false"
       inkscape:rounded="0"
       inkscape:randomized="0"
       d="M 99.999999,139.0625 67.542427,134.25369 45.180351,158.26527 39.72386,125.91028 9.9772255,112.06267 39.062501,96.875 43.040145,64.305122 66.472325,87.273614 98.677279,80.991933 84.073887,110.37491 Z"
       inkscape:transform-center-x="4.3863878"
       inkscape:transform-center-y="0.34769755" />
    <path
       sodipodi:type="star"
       style="fill:#ff2a2a;stroke-width:1.00157475;stroke-miterlimit:4;stroke-dasharray:none"
       id="path1975"
       sodipodi:sides="5"
       sodipodi:cx="423.4375"
       sodipodi:cy="126.5625"
       sodipodi:r1="33.72974"
       sodipodi:r2="16.86487"
       sodipodi:arg1="-0.23374318"
       sodipodi:arg2="0.39457535"
       inkscape:flatsided="false"
       inkscape:rounded="0"
       inkscape:randomized="0"
       d="m 456.25,118.75 -17.24353,14.29563 2.00078,22.30922 -18.9245,-11.98198 -20.59905,8.79678 5.54755,-21.7009 -14.73169,-16.87251 22.35307,-1.42991 11.49436,-19.224568 8.26741,20.817168 z"
       inkscape:transform-center-x="-1.1645977"
       inkscape:transform-center-y="-4.3482357"
       transform="matrix(1.3909277,0,0,1.8011141,121.63924,-138.51945)" />
    <path
       sodipodi:type="star"
       style="fill:#3e2aa8;fill-opacity:1;stroke-width:1.00157475;stroke-miterlimit:4;stroke-dasharray:none"
       id="path1977"
       sodipodi:sides="5"
       sodipodi:cx="506.25"
       sodipodi:cy="101.5625"
       sodipodi:r1="61.017574"
       sodipodi:r2="30.508787"
       sodipodi:arg1="1.6220335"
       sodipodi:arg2="2.250352"
       inkscape:flatsided="false"
       inkscape:rounded="0"
       inkscape:randomized="0"
       d="m 503.125,162.5 -16.04817,-37.20618 -39.74751,-7.87265 30.42602,-26.760056 -4.79532,-40.234915 34.85248,20.667552 36.78384,-16.993894 -8.886,39.533307 27.52899,29.732106 -40.34434,3.76538 z"
       inkscape:transform-center-x="0.96567811"
       inkscape:transform-center-y="4.900599" />
    <path
       sodipodi:type="star"
       style="fill:url(#Wavy);fill-opacity:1.0;stroke-width:1.00157475;stroke-miterlimit:4;stroke-dasharray:none"
       id="path1979"
       sodipodi:sides="5"
       sodipodi:cx="182.8125"
       sodipodi:cy="173.4375"
       sodipodi:r1="46.166519"
       sodipodi:r2="23.08326"
       sodipodi:arg1="-0.41822433"
       sodipodi:arg2="0.2100942"
       inkscape:flatsided="false"
       inkscape:rounded="0"
       inkscape:randomized="0"
       d="m 225,154.6875 -19.61181,23.56406 8.29327,29.51457 -28.47113,-11.37025 -25.50726,17.00788 2.01568,-30.59126 -24.05763,-19.00312 29.7169,-7.53619 10.63882,-28.75245 16.35038,25.93363 z"
       inkscape:transform-center-x="1.481939"
       inkscape:transform-center-y="-2.9752532" />
    <path
       sodipodi:type="star"
       style="fill:#ff2aa5;fill-opacity:1;stroke-width:1.00157475;stroke-miterlimit:4;stroke-dasharray:none"
       id="path1981"
       sodipodi:sides="5"
       sodipodi:cx="271.875"
       sodipodi:cy="84.375"
       sodipodi:r1="44.221786"
       sodipodi:r2="22.110893"
       sodipodi:arg1="0.55859932"
       sodipodi:arg2="1.1869178"
       inkscape:flatsided="false"
       inkscape:rounded="0"
       inkscape:randomized="0"
       d="m 309.375,107.8125 -29.21904,-2.93586 -18.98321,22.40557 -6.23701,-28.696192 -27.17509,-11.130407 25.36435,-14.79936 2.18808,-29.284534 21.91304,19.54968 28.5274,-6.96843 -11.82134,26.881726 z"
       inkscape:transform-center-x="3.3071771"
       inkscape:transform-center-y="0.9519612" />
    <path
       style="fill:#ca2a2a;fill-opacity:1;stroke-width:1.00157475;stroke-miterlimit:4;stroke-dasharray:none"
       id="path1993"
       d="m 110.33198,441.54331 c 0.0776,7.29929 -1.07038,14.52268 -2.18327,21.71729 -1.30134,7.14191 -2.48143,14.29787 -3.64024,21.46412 -1.04929,5.1452 -1.60087,10.3543 -1.8934,15.59056 -0.0257,4.98755 -1.50061,9.80261 -2.35152,14.68629 -0.335063,2.54591 -0.652512,5.08358 -1.136273,7.60647 0,0 -20.829638,10.09216 -20.829638,10.09216 v 0 c 0.540725,-2.51302 1.016316,-5.01064 1.240518,-7.57663 0.809782,-4.83051 2.320347,-9.56873 2.524609,-14.46132 0.219283,-5.33533 0.674943,-10.66756 1.849819,-15.88945 1.350767,-7.1504 2.304907,-14.37863 3.80016,-21.50369 1.151112,-6.99492 2.369855,-14.08957 1.955272,-21.19699 0,0 20.663963,-10.52881 20.663963,-10.52881 z"
       inkscape:connector-curvature="0" />
    <path
       style="fill:#ca2a2a;fill-opacity:1;stroke-width:1.00157475;stroke-miterlimit:4;stroke-dasharray:none"
       id="path1995"
       d="m 90.902691,440.91748 c 9.590939,-2.6035 19.488729,-3.62432 29.353059,-4.54234 6.91354,-0.47505 13.87388,-1.18168 20.79855,-0.62527 14.00536,2.48067 27.60324,6.69124 41.28124,10.50319 12.40716,3.49174 24.68392,7.51571 36.25528,13.22712 6.24638,4.32252 9.04312,9.79623 10.72302,17.00801 1.59341,7.5347 2.28436,15.19667 2.73537,22.86997 0.44487,5.91818 0.36282,11.71203 -0.74731,17.53736 -0.88768,4.6019 -3.21293,8.61282 -5.49409,12.63266 -2.46798,3.77363 -4.85051,7.62674 -7.53899,11.25017 -2.1928,3.29017 -5.25282,5.75055 -8.4541,7.99609 -11.73354,9.1983 -24.47558,13.90213 -38.17868,18.03318 -6.85128,2.17281 -13.93217,3.28228 -21.08169,3.79186 -6.16617,0.57313 -12.27695,0.16442 -18.30017,-1.19958 -4.54893,-1.21557 -8.49504,-3.7485 -12.58448,-5.9878 -3.68476,-1.76333 -7.35571,-3.53865 -10.83946,-5.67703 -3.22419,-2.02092 -6.20751,-4.35673 -8.950709,-6.99436 -2.314985,-1.66533 -3.661986,-4.20812 -5.486559,-6.32158 -1.689029,-2.22616 -2.509939,-5.01172 -3.341756,-7.65473 -2.024221,-9.72715 14.779884,-21.53217 22.683444,-15.15563 1.22665,1.56342 0.69206,0.73214 1.60464,2.49327 0,0 -20.180915,11.52618 -20.180915,11.52618 v 0 c -0.503979,-0.97998 -0.182798,-0.61567 -0.859016,-1.17687 -6.283541,3.71196 12.758881,-7.09488 19.014341,-10.85397 0.45601,-0.27403 -1.1849,-0.0859 -1.57134,0.27979 -0.55367,0.5239 -0.36076,1.07098 -0.33937,1.74505 0.69851,2.36108 1.43404,4.85604 2.92086,6.83751 1.68816,2.10777 3.08327,4.46654 5.2586,6.14015 2.66045,2.50469 5.55683,4.6776 8.694,6.55523 3.47917,2.04498 7.06727,3.86919 10.68095,5.66448 3.94095,2.14015 7.80153,4.45781 12.2403,5.43057 5.85456,1.23205 11.80327,1.32709 17.75517,0.74442 7.04891,-0.68587 14.015,-1.91694 20.75533,-4.1539 3.59186,-1.11144 7.19559,-2.21501 10.71892,-3.53291 1.1235,-0.42025 4.35143,-1.9834 3.34093,-1.33707 -9.35762,5.98529 -23.68914,13.69421 -15.47438,9.25947 3.14735,-2.11909 6.57301,-4.17889 8.74871,-7.35662 2.85998,-3.46049 5.07129,-7.35754 7.71442,-10.98276 2.28475,-3.81946 4.58573,-7.6602 5.84476,-11.96248 1.21103,-5.66599 1.62431,-11.28127 1.11525,-17.08319 -0.30431,-7.55745 -0.8928,-15.12329 -2.51412,-22.52884 -1.46321,-6.41583 -3.95722,-11.61857 -9.68183,-15.29334 -11.22139,-5.73291 -23.01453,-10.16521 -35.20458,-13.40386 -13.8123,-3.75733 -27.62771,-7.85499 -41.89539,-9.48713 -6.78173,-0.19783 -13.56625,0.17225 -20.32739,0.69729 -9.950696,0.92028 -19.937815,2.13217 -29.488743,5.21515 0,0 18.297924,-14.12691 18.297924,-14.12691 z"
       inkscape:connector-curvature="0" />
    <path
       style="fill:#ca2a2a;fill-opacity:1;stroke-width:1.00157475;stroke-miterlimit:4;stroke-dasharray:none"
       id="path1997"
       d="m 216.00398,508.40815 c 8.41357,3.84616 17.23721,6.83356 26.04748,9.64553 8.15458,2.52416 16.53672,4.07714 25.03632,4.73275 5.56553,0.37177 11.1026,0.37453 16.63022,-0.35002 1.86776,-0.21411 3.8571,-0.57975 5.59111,-1.36035 0.43716,-0.19679 1.63927,-0.9945 1.22208,-0.75831 -18.41649,10.42624 -24.70543,14.64977 -17.5109,9.86297 7.68814,-5.49982 15.74094,-9.44732 24.26937,-14.31781 1.2649,-0.72238 5.10415,-2.80974 3.83715,-2.09105 -5.93056,3.36402 -11.85449,6.73973 -17.78173,10.1096 2.47551,-1.97804 5.48843,-4.57705 4.79739,-8.05796 -2.47828,-2.25481 -5.57341,-3.44035 -8.28832,-5.37544 -3.29527,-2.21686 -6.86511,-3.83569 -10.55998,-5.26456 -3.32415,-1.22095 -6.85404,-1.37632 -10.35305,-1.49784 -3.57398,0.001 -7.16637,-0.25121 -10.71443,0.22587 -4.03145,1.5334 -7.81514,3.56865 -11.64777,5.52026 -7.97305,4.74144 1.55677,-0.93697 16.53963,-9.4654 0.53031,-0.30186 -1.03182,0.65176 -1.5497,0.97449 -1.64766,1.0268 -3.25778,2.0852 -4.85971,3.18263 -3.27081,1.80915 -5.94353,4.38612 -8.68928,6.86923 -2.2286,2.10439 -4.42187,4.19383 -6.19704,6.69938 -2.02988,2.99245 -3.64297,6.26432 -4.78475,9.69239 -1.11566,3.31021 -0.95656,6.26689 0.13187,9.4963 1.29832,2.73016 3.69271,4.70686 5.96953,6.61091 2.44504,2.23742 5.41687,3.88135 8.24215,5.62492 2.64365,1.39271 5.05063,3.03059 7.91229,3.95925 2.66152,1.45363 5.53104,2.11674 8.51601,2.43465 3.44991,0.23751 6.91058,0.21836 10.36664,0.21265 3.84934,-0.0194 7.69868,-0.0183 11.54786,0.0209 5.61026,0.0348 11.22068,0.0102 16.83092,-0.0179 4.60623,0.26503 8.88007,-1.38581 12.94996,-3.35684 -32.37603,18.0204 -19.56046,11.64873 -12.96724,6.95746 1.82913,-1.30148 3.54019,-2.76971 5.27981,-4.18583 3.23444,-2.57132 4.26534,-6.08848 4.83282,-10.00241 0.0595,-0.77679 0.11891,-1.55358 0.17836,-2.33037 0,0 20.59944,-10.33449 20.59944,-10.33449 v 0 c -0.0395,0.80607 -0.079,1.61214 -0.11843,2.41821 -0.31887,4.27347 -1.05638,8.35128 -4.07143,11.62154 -9.82057,8.12614 -19.87335,14.6834 -31.82897,20.18092 -4.3439,1.71211 -8.77166,2.93676 -13.50042,2.5793 -5.59843,-0.0272 -11.19709,-0.0494 -16.79549,-0.005 -3.89154,0.0473 -7.78346,0.0721 -11.6753,0.0614 -3.52986,-0.023 -7.07296,-0.0271 -10.58225,-0.45307 -3.06214,-0.53696 -5.95079,-1.52231 -8.76305,-2.8526 -2.89457,-1.16415 -5.50351,-2.81768 -8.20158,-4.37 -2.86205,-1.8742 -5.93894,-3.49784 -8.38553,-5.91925 -2.56096,-2.23321 -5.23834,-4.47553 -6.63838,-7.65794 -0.54668,-1.59701 -1.31064,-3.32961 -1.41978,-5.03324 -0.12225,-1.90833 0.49749,-3.86533 0.6645,-5.74913 0.97392,-3.66807 2.59133,-7.08649 4.48919,-10.36654 0.89991,-1.32138 1.62824,-2.80718 2.73424,-3.974 0.39411,-0.41577 1.78943,-1.56317 2.19454,-1.9855 0.37046,-0.38622 0.6896,-0.8186 1.03439,-1.2279 2.80266,-2.48303 5.34401,-5.37207 8.64529,-7.18392 9.47154,-6.3798 19.11225,-12.52014 29.40554,-17.58115 3.87349,-1.99379 7.84206,-4.06405 12.1705,-4.815 3.6428,-0.20275 7.29355,-0.14037 10.93792,0.0206 3.68672,0.23866 7.35845,0.65367 10.78663,2.13946 3.77454,1.59485 7.43551,3.3601 10.82461,5.68679 3.20189,2.09612 6.93115,3.46782 9.19474,6.73986 1.43985,4.56248 -0.48077,7.48131 -3.74939,10.65773 -7.20123,4.28692 -14.38763,8.59884 -21.60368,12.86075 -0.64261,0.37953 -1.31232,0.71121 -1.97072,1.06263 -0.63876,0.34094 -2.54385,1.38319 -1.92072,1.01446 5.97785,-3.53742 11.97124,-7.04885 17.98686,-10.52164 0.93981,-0.54255 -3.41015,2.17009 -2.6461,1.89645 -9.23941,6.26657 -18.17413,13.57664 -29.39554,14.46563 -5.59964,0.51318 -11.22474,0.33852 -16.82758,-0.0896 -8.47611,-0.95078 -16.79686,-2.79788 -24.92177,-5.41101 -8.99661,-2.90726 -18.01098,-5.84044 -26.74607,-9.47107 0,0 19.26872,-12.80392 19.26872,-12.80392 z"
       inkscape:connector-curvature="0" />
    <path
       style="fill:#ca2a2a;fill-opacity:1;stroke-width:1.00157475;stroke-miterlimit:4;stroke-dasharray:none"
       id="path1999"
       d="m 358.76948,446.23081 c -0.21635,6.94598 -0.15171,13.89643 -0.1825,20.84464 -0.058,9.22275 -0.0484,18.44577 -0.0615,27.66868 -0.01,7.26869 0.0826,14.53671 0.1683,21.8047 0.0533,3.93338 0.041,7.86714 0.0525,11.80078 0.0226,3.52814 -0.004,7.05618 -0.002,10.58432 9.9e-4,3.45424 0.0261,6.90848 0.003,10.36267 -0.13992,3.65237 -0.0402,7.23392 0.75857,10.80517 0.65209,1.78427 0.67047,3.84458 1.60499,5.51993 0,0 -20.30899,11.45812 -20.30899,11.45812 v 0 c -0.75994,-1.9302 -1.01342,-4.00937 -1.64407,-5.98371 -0.9897,-3.71206 -1.19418,-7.45928 -1.0304,-11.29314 -0.0229,-3.45533 0.003,-6.91072 0.003,-10.3661 10e-4,-3.5274 -0.0248,-7.0547 -0.002,-10.58209 0.0115,-3.95148 -6e-4,-7.90307 0.0525,-11.85429 0.0853,-7.32516 0.17772,-14.65035 0.1683,-21.9762 -0.0131,-9.20202 -0.003,-18.40415 -0.0615,-27.60601 -0.0307,-6.8862 0.0356,-13.77475 -0.1825,-20.65866 0,0 20.66396,-10.52881 20.66396,-10.52881 z"
       inkscape:connector-curvature="0" />
    <path
       style="fill:#ca2a2a;fill-opacity:1;stroke-width:1.00157475;stroke-miterlimit:4;stroke-dasharray:none"
       id="path2001"
       d="m 373.45073,501.48588 c 7.52161,-4.24883 15.62506,-7.52411 23.78681,-10.33976 5.00447,-1.75681 9.96147,-2.76424 15.17153,-1.57745 6.98771,2.79607 13.73824,6.21451 20.63241,9.26702 12.27427,5.41687 24.35243,11.26717 36.48449,16.99292 4.01643,2.40309 8.70991,3.62985 12.65671,6.16288 2.60981,1.67496 4.53347,4.00517 6.35058,6.45456 2.58015,4.70225 2.89782,9.93639 3.05504,15.16984 0.52402,5.87514 -1.1599,10.9948 -4.25075,15.88619 -10.93297,13.89531 -27.72492,21.047 -42.71419,29.53745 -10.09404,5.50999 -20.87362,9.59287 -31.74428,13.27775 -5.8469,2.04254 -11.83572,2.65275 -17.92857,1.663 -5.04039,-1.16167 -10.23464,-1.81777 -15.22068,-3.19505 -3.99853,-1.5377 -7.52369,-3.98245 -11.33886,-5.90955 -3.45716,-1.89517 -7.34199,-2.58586 -11.03369,-3.79585 -0.82397,-0.27006 -4.00058,-1.66217 -4.89949,-2.05061 -3.32721,-1.765 -6.62901,-3.57281 -9.9927,-5.27114 -4.06774,-1.93715 -7.40251,-3.41377 -10.7202,-6.58611 0,0 19.63437,-12.13352 19.63437,-12.13352 v 0 c 3.07172,2.7516 6.80716,4.1646 10.43764,6.03075 3.26512,1.74554 6.55798,3.42697 9.81472,5.18745 5.24064,2.25033 10.8693,3.39347 15.97945,5.98101 3.69541,1.85632 7.17116,4.20167 11.13884,5.45536 4.95221,1.20422 9.97848,2.18108 15.01008,2.97998 5.84355,0.51738 11.4938,-0.25802 17.02814,-2.28906 10.74002,-3.68549 21.33477,-7.84799 31.28369,-13.36742 -28.31443,16.92325 -9.49367,6.2546 -4.03021,1.87287 3.007,-2.41163 5.59533,-5.47521 8.28621,-8.21597 3.21291,-4.3887 5.29072,-8.98272 4.80123,-14.56466 -0.10841,-4.74262 -0.20473,-9.61052 -2.40875,-13.93286 -4.70716,-6.49682 -10.9375,-8.42781 -17.90822,-11.98496 -12.06638,-5.82366 -24.08243,-11.78552 -36.47977,-16.88419 -6.92439,-2.85487 -13.66824,-6.34515 -20.84462,-8.47464 -4.91368,-0.53528 -9.5885,0.68693 -14.21737,2.32236 -8.23659,2.96871 -16.24059,6.52362 -23.98302,10.61443 0,0 18.16343,-14.28302 18.16343,-14.28302 z"
       inkscape:connector-curvature="0" />
    <path
       style="fill:#ca2a2a;fill-opacity:1;stroke-width:1.00157475;stroke-miterlimit:4;stroke-dasharray:none"
       id="path2003"
       d="m 530.61711,474.74356 c -0.27755,9.94814 -0.30254,19.90378 -0.29405,29.85548 -0.052,9.35 0.0683,18.69983 0.20094,28.04869 0.0353,4.42152 0.0788,8.84295 0.10124,13.26455 -0.05,4.03559 -0.0211,8.07164 -0.006,12.10737 -0.019,3.72612 -6.8e-4,7.45229 0.009,11.17841 0,0 -20.63042,10.51172 -20.63042,10.51172 v 0 c 0.009,-3.7291 0.0278,-7.45826 0.009,-11.18736 0.0147,-4.03358 0.0438,-8.06749 -0.006,-12.10093 0.0225,-4.45599 0.066,-8.91182 0.10124,-13.36773 0.13171,-9.41713 0.25257,-18.8352 0.20094,-28.25345 0.008,-9.85178 -0.0134,-19.70773 -0.29405,-29.55583 0,0 20.60922,-10.50092 20.60922,-10.50092 z"
       inkscape:connector-curvature="0" />
    <path
       style="fill:#ca2a2a;fill-opacity:1;stroke-width:1.00157475;stroke-miterlimit:4;stroke-dasharray:none"
       id="path2005"
       d="m 512.97784,546.78213 c 7.48248,-4.30011 14.96497,-8.60022 22.44745,-12.90033 1.13053,-0.63785 4.51573,-2.56256 3.39159,-1.91353 -5.30014,3.06008 -21.20805,12.22717 -15.91972,9.14673 9.07114,-5.28393 18.86669,-12.16147 29.16734,-15.96849 5.24441,-1.8551 10.77196,-2.16154 16.27701,-2.29311 4.91304,0.21656 9.97941,-0.60965 14.78607,0.55182 4.63072,1.81293 8.40667,5.11334 12.3345,8.08614 4.56644,3.34532 8.7399,7.12353 12.56989,11.28111 3.21337,3.70553 4.90034,8.37029 5.98941,13.08367 0.82466,4.27534 0.92772,8.64542 1.00587,12.98608 0.38809,4.49206 -0.41618,7.74837 -2.74011,11.59165 -7.18905,9.24998 -19.34764,13.636 -28.914,19.35089 -5.79356,3.46104 11.69709,-6.73454 17.54563,-10.10182 -10.60255,5.08961 -20.77956,13.97406 -32.7733,16.58145 -3.62943,0.63935 -7.33189,0.5805 -11.00388,0.59299 -4.24955,-0.27986 -7.75149,-2.6141 -11.39604,-4.59026 -4.48128,-2.16102 -9.14954,-4.13189 -13.99547,-5.30527 -6.1771,-2.28521 -12.68106,-3.56201 -19.16679,-4.60918 -6.58577,-1.34515 -9.99449,-1.02985 -14.12946,-6.79499 -2.27828,-4.16929 -3.1814,-8.89157 -4.95766,-13.25606 -1.54131,-3.14117 -2.86181,-6.40294 -1.78747,-9.87394 20.94188,-12.39116 13.20528,-15.22464 21.80674,-11.63691 0,0 -18.92519,13.56818 -18.92519,13.56818 v 0 c -6.66303,4.687 -0.78153,0.52915 18.54188,-11.0958 -3.12098,1.22101 -0.28103,5.80998 0.50829,7.75705 1.7585,4.18036 2.49216,8.77131 4.6965,12.78178 3.32661,4.52959 7.80021,4.29122 12.94552,5.44014 6.57124,1.17231 13.11671,2.5368 19.45344,4.67177 4.93165,1.44364 9.70139,3.45688 14.29852,5.74591 3.41825,1.82936 6.81583,3.71011 10.81649,3.57955 3.5721,-0.0504 7.17826,-0.10994 10.65611,-1.02656 8.83854,-2.59223 26.88808,-13.82958 -7.07271,5.74927 7.28819,-4.22355 14.53233,-8.52404 21.86457,-12.67063 5.92607,-3.35137 -11.74688,6.88582 -17.64579,10.28479 -0.71225,0.41039 1.39238,-0.87422 2.08421,-1.31817 2.38349,-1.52952 1.77193,-1.00961 3.79851,-2.96455 0.54566,-0.52637 1.07136,-1.07305 1.60704,-1.60957 2.70918,-3.66773 3.6428,-5.68045 3.29175,-10.32237 -0.011,-4.20456 -0.0306,-8.43352 -0.73048,-12.59181 -0.90967,-4.35563 -2.38665,-8.6386 -5.34298,-12.05616 -3.72556,-4.06 -7.8568,-7.67935 -12.2921,-10.95494 -3.68831,-2.73529 -7.36713,-5.85374 -11.85687,-7.12507 -4.78624,-0.55297 -9.63783,-0.18035 -14.44576,-0.18386 -5.34719,0.25184 -10.68121,0.79117 -15.68548,2.85166 -1.01062,0.44752 -2.03935,0.85619 -3.03185,1.34257 -1.02531,0.50246 -4.00101,2.20123 -3.01715,1.62181 5.3452,-3.14791 21.46748,-12.44328 16.10299,-9.32837 -7.67649,4.45737 -15.35399,8.91303 -23.03896,13.35576 -1.16121,0.67131 -4.6583,2.66167 -3.49946,1.98628 5.63019,-3.28139 11.27581,-6.53625 16.91371,-9.80438 0,0 -21.53235,8.30708 -21.53235,8.30708 z"
       inkscape:connector-curvature="0" />
    <path
       style="fill:#ca2a2a;fill-opacity:1;stroke-width:1.00157475;stroke-miterlimit:4;stroke-dasharray:none"
       id="path2007"
       d="m 640.12549,529.32897 c 0.60025,9.39769 0.75291,18.8126 0.99276,28.22385 0.0985,3.86375 0.19022,7.72727 0.32787,11.58982 0,0 -20.43368,10.43806 -20.43368,10.43806 v 0 c 0.0564,-3.91357 0.0666,-7.82713 0.0177,-11.74102 -0.14079,-9.27766 -0.35077,-18.57938 -1.40686,-27.80561 0,0 20.50218,-10.7051 20.50218,-10.7051 z"
       inkscape:connector-curvature="0" />
    <path
       style="fill:#ca2a2a;fill-opacity:1;stroke-width:1.00157475;stroke-miterlimit:4;stroke-dasharray:none"
       id="path2009"
       d="m 681.71238,536.96122 c 8.52096,0.18345 17.04449,0.12816 25.56673,0.10882 3.67181,-0.22997 7.45962,-0.41117 10.99203,-1.56422 3.12832,-1.02115 5.95693,-2.9762 8.7839,-4.60636 -24.64487,13.74602 -20.70978,12.98993 -14.49849,7.3817 2.89086,-2.61019 5.68556,-5.32107 8.61203,-7.89599 3.15093,-2.35238 4.86418,-5.39837 5.68149,-9.16617 1.02225,-4.00849 -0.951,-6.69411 -3.34146,-9.71917 -3.16327,-3.23562 -7.31455,-4.82513 -11.47819,-6.33488 -3.55715,-1.13971 -7.28726,-1.6304 -10.99945,-1.2323 -0.65958,0.17498 -1.32832,0.31851 -1.97874,0.52496 -1.53535,0.48733 -5.79257,2.80974 -4.39602,2.00697 31.49422,-18.1037 19.44896,-11.62354 12.88279,-6.8519 -3.18724,2.67391 -6.33202,5.39615 -9.37358,8.23497 -3.27174,3.49727 -5.5514,7.71764 -7.69981,11.95519 -1.92977,3.93397 -3.35823,8.07178 -4.83569,12.18721 -1.28866,3.8653 -1.59991,7.94831 -1.80172,11.99019 -0.37065,3.36769 0.10648,6.54992 1.12635,9.74478 1.20023,3.79455 3.76799,7.01786 5.80887,10.40923 2.21843,4.29757 5.9711,7.30502 9.77068,10.16877 3.04418,2.24466 6.06146,3.81586 9.78153,4.48891 3.34948,0.44707 6.73887,0.40067 10.11072,0.40115 4.67911,0.47133 8.73076,-0.8726 13.18251,-2.08562 5.78106,-1.86427 11.95745,-2.89102 17.15175,-6.17542 -38.893,20.77947 -19.26338,14.40356 -16.35053,8.00193 0,0 20.8275,-10.18639 20.8275,-10.18639 v 0 c -0.0138,0.67385 0.13514,1.37107 -0.0413,2.02156 -2.33108,8.59455 -34.31969,6.46028 -22.37044,14.60357 -5.5816,2.54446 -11.54291,3.9819 -17.41369,5.69839 -4.53401,1.19732 -8.98716,2.10898 -13.70597,1.71274 -3.48534,-0.0243 -6.9995,-0.0363 -10.41909,-0.80396 -3.84801,-1.03475 -7.09156,-2.96558 -10.24072,-5.39602 -3.93465,-3.13968 -7.90544,-6.31161 -10.21664,-10.89514 -2.12484,-3.54613 -4.92859,-6.83692 -6.18303,-10.8037 -1.1215,-3.43144 -1.88015,-6.85294 -1.47728,-10.49938 0.18323,-4.23274 0.51888,-8.47272 1.51079,-12.60476 1.47503,-4.21744 3.02914,-8.39895 4.80057,-12.50303 2.2021,-4.30053 4.27856,-8.71 7.34521,-12.48789 2.65561,-3.32623 6.40489,-5.60561 9.35064,-8.66579 9.88503,-7.85006 20.8814,-15.86652 33.47379,-17.86171 3.95124,0.01 7.84807,0.5462 11.54185,2.02441 4.45631,1.79681 8.84175,3.73797 12.11987,7.39896 1.82077,2.32502 4.06317,4.97396 4.57432,7.99694 0.061,0.36058 -0.19047,3.0557 -0.21863,3.38841 -0.59271,4.09942 -1.81185,7.98679 -5.17159,10.68556 -12.00098,9.78631 -15.30493,16.46167 -33.25247,23.52825 -1.92635,1.04852 -4.00053,2.25331 -6.04895,3.05204 -4.5376,1.7693 -9.49833,1.9781 -14.30406,2.09293 -8.62212,-0.0197 -17.2454,-0.0717 -25.8663,0.10882 0,0 18.68792,-13.57756 18.68792,-13.57756 z"
       inkscape:connector-curvature="0" />
    <path
       style="fill:#ca2a2a;fill-opacity:1;stroke-width:1.00157475;stroke-miterlimit:4;stroke-dasharray:none"
       id="path2011"
       d="m 626.58064,480.72226 c 3.50507,2.87477 6.62601,4.6517 11.07401,2.85394 -6.19816,3.43279 -12.34724,6.95573 -18.59447,10.29838 -0.44975,0.24064 0.83406,-0.60053 1.17641,-0.97866 1.20045,-1.3259 1.78087,-3.11596 1.59027,-4.86211 -0.70138,-1.28237 -1.97814,-1.06138 -3.13911,-0.44954 -0.50306,0.26511 -1.90903,1.23362 -1.4122,0.957 6.06493,-3.37677 12.08117,-6.84025 18.12176,-10.26038 -2.70162,1.88332 -5.38176,4.03201 -6.72424,7.11368 -0.21377,2.36137 4.60651,3.52244 6.35396,3.98971 1.78364,0.51059 3.26915,0.33479 4.9629,-0.26853 0,0 -18.51057,13.95857 -18.51057,13.95857 v 0 c -1.90457,0.0615 -3.74473,-0.0445 -5.57415,-0.66778 -3.40364,-1.21761 -7.63544,-3.02274 -8.20662,-7.04054 0.68383,-3.84326 3.35349,-6.2342 6.15599,-8.74254 7.19941,-4.13562 14.3091,-8.43154 21.59825,-12.40688 2.72645,-1.48694 5.67977,0.47181 6.86679,2.87233 2.97296,12.04957 -16.8449,17.43958 -23.07317,20.51585 -4.78564,0.4257 -8.66548,-1.61797 -12.33427,-4.583 0,0 19.66846,-12.2995 19.66846,-12.2995 z"
       inkscape:connector-curvature="0" />
  </g>
</svg>
